<svg width="18" height="18" viewBox="0 0 18 18" fill="none" xmlns="http://www.w3.org/2000/svg">
<path d="M8.615 9.61261L1.22307 17.0046C1.09155 17.1361 0.92998 17.2065 0.738348 17.2159C0.546715 17.2253 0.375749 17.1549 0.22545 17.0046C0.0751497 16.8542 0 16.688 0 16.5057C0 16.3235 0.0751497 16.1572 0.22545 16.0069L7.61738 8.615L0.22545 1.22307C0.0939372 1.09155 0.023484 0.92998 0.0140903 0.738348C0.00469652 0.546715 0.0751497 0.375749 0.22545 0.22545C0.375749 0.0751497 0.542019 0 0.724257 0C0.906496 0 1.07277 0.0751497 1.22307 0.22545L8.615 7.61738L16.0069 0.22545C16.1384 0.0939372 16.3005 0.023484 16.4931 0.0140903C16.6838 0.00469652 16.8542 0.0751497 17.0046 0.22545C17.1549 0.375749 17.23 0.542019 17.23 0.724257C17.23 0.906496 17.1549 1.07277 17.0046 1.22307L9.61261 8.615L17.0046 16.0069C17.1361 16.1384 17.2065 16.3005 17.2159 16.4931C17.2253 16.6838 17.1549 16.8542 17.0046 17.0046C16.8542 17.1549 16.688 17.23 16.5057 17.23C16.3235 17.23 16.1572 17.1549 16.0069 17.0046L8.615 9.61261Z" fill="white"/>
</svg>
