<svg width="25" height="25" viewBox="0 0 25 25" fill="none" xmlns="http://www.w3.org/2000/svg">
<path d="M1.8968 18.6852V23.1032H6.3148L19.345 10.0613L14.927 5.64326L1.8968 18.6852ZM25 19.9929L19.9929 25L13.8666 18.8737L15.9519 16.7884L17.1301 17.9665L20.0401 15.0448L21.713 16.7177L19.9929 18.3907L21.2418 19.5688L22.9147 17.9194L25 19.9929ZM6.14986 11.1216L0 5.00707L5.00707 0L7.08058 2.0853L4.17059 5.00707L5.4312 6.25589L8.32941 3.33412L10.0024 5.00707L8.32941 6.66824L9.50754 7.84637L6.14986 11.1216ZM22.7615 6.60933C23.221 6.14986 23.221 5.4312 22.7615 4.94816L20.0047 2.23845C19.5688 1.77898 18.803 1.77898 18.3435 2.23845L16.1758 4.39444L20.5938 8.81244L22.7615 6.60933Z" fill="#3C3C3C"/>
</svg>
